<?xml version="1.0" encoding="UTF-8"?>
<!DOCTYPE svg PUBLIC "-//W3C//DTD SVG 1.1//EN" "http://www.w3.org/Graphics/SVG/1.1/DTD/svg11.dtd">
<svg xmlns="http://www.w3.org/2000/svg" style="background: transparent; background-color: transparent; color-scheme: light;" xmlns:xlink="http://www.w3.org/1999/xlink" version="1.1" width="142px" height="150px" viewBox="0 0 142 150"><defs/><g><g data-cell-id="0"><g data-cell-id="1"><g data-cell-id="FNna0yvgCi3ac54tWMO2-3"><g transform="translate(0.5,0.5)"><ellipse cx="27.4" cy="27.8" rx="10" ry="10" fill="#dae8fc" stroke="#6c8ebf" pointer-events="all" style="fill: rgb(218, 232, 252); stroke: rgb(108, 142, 191);"/></g></g><g data-cell-id="FNna0yvgCi3ac54tWMO2-4"><g transform="translate(0.5,0.5)"><path d="M 27.4 117.8 L 27.4 114.17" fill="none" stroke="#000000" stroke-miterlimit="10" pointer-events="stroke" style="stroke: rgb(0, 0, 0);"/><path d="M 27.4 108.92 L 30.9 115.92 L 27.4 114.17 L 23.9 115.92 Z" fill="#000000" stroke="#000000" stroke-miterlimit="10" pointer-events="all" style="fill: rgb(0, 0, 0); stroke: rgb(0, 0, 0);"/></g></g><g data-cell-id="FNna0yvgCi3ac54tWMO2-5"><g transform="translate(0.5,0.5)"><ellipse cx="27.4" cy="27.8" rx="10" ry="10" fill="#dae8fc" stroke="#6c8ebf" pointer-events="all" style="fill: rgb(218, 232, 252); stroke: rgb(108, 142, 191);"/></g></g><g data-cell-id="FNna0yvgCi3ac54tWMO2-7"><g transform="translate(0.5,0.5)"><path d="M 27.4 37.8 L 27.4 91.43" fill="none" stroke="#000000" stroke-miterlimit="10" pointer-events="stroke" style="stroke: rgb(0, 0, 0);"/><path d="M 27.4 96.68 L 23.9 89.68 L 27.4 91.43 L 30.9 89.68 Z" fill="#000000" stroke="#000000" stroke-miterlimit="10" pointer-events="all" style="fill: rgb(0, 0, 0); stroke: rgb(0, 0, 0);"/></g></g><g data-cell-id="FNna0yvgCi3ac54tWMO2-6"><g transform="translate(0.5,0.5)"><ellipse cx="27.4" cy="107.8" rx="10" ry="10" fill="#dae8fc" stroke="#6c8ebf" pointer-events="all" style="fill: rgb(218, 232, 252); stroke: rgb(108, 142, 191);"/></g></g><g data-cell-id="FNna0yvgCi3ac54tWMO2-9"><g transform="translate(0.5,0.5)"><path d="M 34.47 34.87 L 56.6 65.56" fill="none" stroke="#000000" stroke-miterlimit="10" pointer-events="stroke" style="stroke: rgb(0, 0, 0);"/><path d="M 59.68 69.82 L 52.74 66.19 L 56.6 65.56 L 58.42 62.1 Z" fill="#000000" stroke="#000000" stroke-miterlimit="10" pointer-events="all" style="fill: rgb(0, 0, 0); stroke: rgb(0, 0, 0);"/></g></g><g data-cell-id="FNna0yvgCi3ac54tWMO2-10"><g transform="translate(0.5,0.5)"><ellipse cx="67.4" cy="77.8" rx="10" ry="10" fill="#dae8fc" stroke="#6c8ebf" pointer-events="all" style="fill: rgb(218, 232, 252); stroke: rgb(108, 142, 191);"/></g></g><g data-cell-id="FNna0yvgCi3ac54tWMO2-11"><g transform="translate(0.5,0.5)"><ellipse cx="107.4" cy="27.8" rx="10" ry="10" fill="#dae8fc" stroke="#6c8ebf" pointer-events="all" style="fill: rgb(218, 232, 252); stroke: rgb(108, 142, 191);"/></g></g><g data-cell-id="FNna0yvgCi3ac54tWMO2-12"><g transform="translate(0.5,0.5)"><path d="M 100.33 34.87 L 78.2 65.56" fill="none" stroke="#000000" stroke-miterlimit="10" pointer-events="stroke" style="stroke: rgb(0, 0, 0);"/><path d="M 75.12 69.82 L 76.38 62.1 L 78.2 65.56 L 82.06 66.19 Z" fill="#000000" stroke="#000000" stroke-miterlimit="10" pointer-events="all" style="fill: rgb(0, 0, 0); stroke: rgb(0, 0, 0);"/></g></g><g data-cell-id="FNna0yvgCi3ac54tWMO2-13"><g transform="translate(0.5,0.5)"><ellipse cx="107.4" cy="107.8" rx="10" ry="10" fill="#dae8fc" stroke="#6c8ebf" pointer-events="all" style="fill: rgb(218, 232, 252); stroke: rgb(108, 142, 191);"/></g></g><g data-cell-id="FNna0yvgCi3ac54tWMO2-14"><g transform="translate(0.5,0.5)"><path d="M 107.4 37.8 L 107.4 91.43" fill="none" stroke="#000000" stroke-miterlimit="10" pointer-events="stroke" style="stroke: rgb(0, 0, 0);"/><path d="M 107.4 96.68 L 103.9 89.68 L 107.4 91.43 L 110.9 89.68 Z" fill="#000000" stroke="#000000" stroke-miterlimit="10" pointer-events="all" style="fill: rgb(0, 0, 0); stroke: rgb(0, 0, 0);"/></g></g></g></g></g></svg>